<svg width="1600" height="1600" viewBox="0 0 1600 1600" fill="none" xmlns="http://www.w3.org/2000/svg">
<g clip-path="url(#clip0_1_5)">
<rect width="1600" height="1600" fill="white"/>
<path d="M0 0V1600H1600V800V0H800H0ZM0 0H1600V1600H0V0ZM71.1042 71.1042V1528.87H1528.85V1164.43V799.986V71.1042H71.1042ZM589.363 159.992C631.455 159.992 671.816 176.704 701.582 206.439C731.341 236.18 748.059 276.518 748.065 318.574C748.059 360.63 731.337 400.962 701.571 430.697C671.812 460.433 631.45 477.137 589.365 477.137C547.286 477.137 506.924 460.432 477.165 430.697C447.405 400.96 430.682 360.629 430.676 318.574C430.676 276.518 447.398 236.182 477.159 206.439C506.918 176.702 547.278 159.992 589.363 159.992ZM589.363 492.068C633.327 492.068 668.717 527.445 668.717 571.373V729.962H878.126C907.429 729.962 931.014 753.535 931.014 782.815C931.014 812.095 907.429 835.686 878.126 835.686H668.717V915.022H1013.93C1041.76 914.583 1068.93 928.805 1083.88 954.707L1295.52 1320.9C1317.5 1358.96 1304.56 1407.27 1266.48 1429.22C1228.4 1451.2 1180.06 1438.23 1158.08 1400.21L969.337 1073.52H589.415C553.7 1073.52 523.649 1050.16 513.635 1017.85C513.256 1016.62 512.912 1015.32 512.575 1014.11C512.225 1012.84 511.923 1011.6 511.668 1010.25C511.401 1008.98 511.176 1007.7 510.975 1006.36C510.773 1005.05 510.595 1003.74 510.459 1002.39C510.299 1001.05 510.287 999.704 510.157 998.358C510.021 997.001 510.015 995.644 510.015 994.264V571.364C510.015 527.436 545.41 492.076 589.362 492.076L589.363 492.068ZM478.858 802.389L498.23 835.864L481.49 845.511C356.105 917.878 300.904 1069.41 350.416 1205.35C399.933 1341.29 539.68 1421.9 682.264 1396.78C824.846 1371.67 928.567 1248.14 928.567 1103.47V1084.14H967.221V1103.47C967.215 1266.65 849.758 1406.52 688.954 1434.86C548.257 1459.65 409.504 1392.84 339.615 1273.04C329.618 1255.93 321.05 1237.72 314.062 1218.57C258.222 1065.23 320.723 893.643 462.126 812.058L478.858 802.389Z" fill="#104498" fill-opacity="0.95"/>
</g>
<defs>
<clipPath id="clip0_1_5">
<rect width="1600" height="1600" fill="white"/>
</clipPath>
</defs>
</svg>
